<?xml version="1.0" encoding="utf-8"?>
<!-- Generator: Adobe Illustrator 19.2.1, SVG Export Plug-In . SVG Version: 6.00 Build 0)  -->
<svg version="1.1" id="Layer_1" xmlns="http://www.w3.org/2000/svg" xmlns:xlink="http://www.w3.org/1999/xlink" x="0px" y="0px"
	 viewBox="0 0 595.3 72.6" style="enable-background:new 0 0 595.3 72.6;" xml:space="preserve">
<style type="text/css">
	.st0{fill:#838484;}
	.st1{fill:#7DC578;}
	.st2{fill:#92CD8A;}
	.st3{fill:#A3D39A;}
	.st4{fill:#C4E2BC;}
</style><!--
<image style="overflow:visible;" width="3840" height="1080" xlink:href="823A5DC1.jpg"  transform="matrix(1 0 0 1 -7894 -7770.1099)">
</image>
<image style="overflow:visible;" width="3840" height="1080" xlink:href="823A5DC3.jpg"  transform="matrix(1 0 0 1 -7894 -7770.1099)">
</image>-->
<path class="st0" d="M188,72.4h-11.8V29.2l-20.2,43.2H145l-21.5-44.2v44.2h-11.8V1.9h12l26.8,54.8l25.6-54.8h12V72.4z"/>
<path class="st0" d="M217.8,2h11.8v70.4h-11.8V2z"/>
<path class="st0" d="M319.1,72.4h-11.9l-35-50.1v50.1h-11.8V2h11.9l35.1,50.1V2h11.7V72.4z"/>
<path class="st0" d="M358,13.8v17.6h29.3V43H358v17.6h35.2v11.8h-47V2h47v11.8H358z"/>
<path class="st0" d="M461,22.6c0,20.6-23.5,20.6-23.5,20.6h-11.8v29.4H414V2h23.5C437.5,2,461,2,461,22.6z M449.3,22.6
	c0-8.9-11.8-8.9-11.8-8.9h-11.8v17.7h11.8C437.5,31.5,449.3,31.5,449.3,22.6z"/>
<path class="st0" d="M512.2,64.3h-24.7l-3,8.1h-12.7L499.8,0L528,72.4h-12.7L512.2,64.3z M491.3,54.1h17.1l-8.5-24.4L491.3,54.1z"/>
<path class="st0" d="M595.3,2l-26.5,37.1v33.3h-11.8V39.1L530.6,2H545l18,25.1L580.9,2H595.3z"/>
<rect x="53" y="1.8" class="st1" width="17.7" height="17.7"/>
<rect x="53" y="19.5" class="st2" width="17.7" height="17.7"/>
<rect x="53" y="37.2" class="st3" width="17.7" height="17.7"/>
<rect x="53" y="54.8" class="st4" width="17.7" height="17.7"/>
<rect x="35.3" y="19.5" class="st1" width="17.7" height="17.7"/>
<rect x="35.3" y="37.2" class="st2" width="17.7" height="17.7"/>
<rect x="35.3" y="54.8" class="st3" width="17.7" height="17.7"/>
<rect x="17.7" y="37.2" class="st1" width="17.7" height="17.7"/>
<rect x="17.7" y="54.8" class="st2" width="17.7" height="17.7"/>
<rect y="54.8" class="st1" width="17.7" height="17.7"/>
</svg>
